{
    "asset": {
        "generator": "Noesis",
        "version": "2.0"
    },
    "scene": 0,
    "scenes": [
        {
            "nodes": [
                0,
                32
            ]
        }
    ],
    "nodes": [
        {
            "name": "body_noesis_meshnode_0000",
            "translation": [
                0.0,
                0.0,
                0.0
            ],
            "rotation": [
                0.0,
                0.0,
                0.0,
                1.0
            ],
            "scale": [
                1.0,
                1.0,
                1.0
            ],
            "mesh": 0,
            "skin": 0
        },
        {
            "name": "bip",
            "children": [
                2
            ],
            "translation": [
                0.0,
                1.666450023651123046875,
                85.38282012939453125
            ],
            "rotation": [
                -0.0000000000000000000000000000022312338510811075222096487959805919,
                0.0,
                -0.70710623264312744140625,
                0.7071073055267333984375
            ],
            "scale": [
                1.0,
                1.0,
                1.0
            ]
        },
        {
            "name": "bip Pelvis",
            "children": [
                3,
                24,
                28
            ],
            "translation": [
                0.0,
                0.0,
                0.0
            ],
            "rotation": [
                -0.500000059604644775390625,
                -0.500000059604644775390625,
                -0.499999344348907470703125,
                0.500000655651092529296875
            ],
            "scale": [
                1.0,
                1.0,
                1.0
            ]
        },
        {
            "name": "bip Spine",
            "children": [
                4
            ],
            "translation": [
                7.2350006103515625,
                0.9069538116455078125,
                0.00000377572769139078445732593536376953125
            ],
            "rotation": [
                -0.00000209870995604433119297027587890625,
                -0.0000007124480134734767489135265350341796875,
                0.0278585739433765411376953125,
                0.999611914157867431640625
            ],
            "scale": [
                0.999999940395355224609375,
                0.999999940395355224609375,
                1.0
            ]
        },
        {
            "name": "bip Spine1",
            "children": [
                5,
                8,
                16
            ],
            "translation": [
                19.57727813720703125,
                -0.0190181732177734375,
                -0.000000052736140787601470947265625
            ],
            "rotation": [
                -0.0000000000000035860325668136960874932128717773593962192535400391,
                0.000000377213240199125721119344234466552734375,
                -0.1360013186931610107421875,
                0.99070870876312255859375
            ],
            "scale": [
                0.999999940395355224609375,
                0.999999940395355224609375,
                1.0
            ]
        },
        {
            "name": "bip Neck",
            "children": [
                6
            ],
            "translation": [
                29.54166412353515625,
                2.7996730804443359375,
                0.00000476517379865981638431549072265625
            ],
            "rotation": [
                0.0000000000000592316316437233036928944329702062532305717468261719,
                -0.0000007796439831508905626833438873291015625,
                0.2810945808887481689453125,
                0.959680140018463134765625
            ],
            "scale": [
                1.0,
                1.0,
                1.0
            ]
        },
        {
            "name": "bip Head",
            "children": [
                7
            ],
            "translation": [
                5.28948974609375,
                -0.000003814697265625,
                -0.00000000002910383045673370361328125
            ],
            "rotation": [
                -0.0000000000004647375691745059267390161039656959474086761474609375,
                0.000000460046891248566680587828159332275390625,
                -0.16586698591709136962890625,
                0.9861481189727783203125
            ],
            "scale": [
                0.999999940395355224609375,
                0.999999940395355224609375,
                1.0
            ]
        },
        {
            "name": "bip jaw",
            "translation": [
                2.4241485595703125,
                2.4256732463836669921875,
                -0.0073077813722193241119384765625
            ],
            "rotation": [
                -0.000033642732887528836727142333984375,
                0.00208212039433419704437255859375,
                0.7889158725738525390625,
                0.614497661590576171875
            ],
            "scale": [
                0.999999940395355224609375,
                1.0,
                0.999999940395355224609375
            ]
        },
        {
            "name": "bip L Clavicle",
            "children": [
                9
            ],
            "translation": [
                24.40172576904296875,
                -0.039928436279296875,
                4.454899311065673828125
            ],
            "rotation": [
                0.75276648998260498046875,
                -0.00030062100267969071865081787109375,
                0.658287525177001953125,
                0.00026105044526048004627227783203125
            ],
            "scale": [
                0.999999940395355224609375,
                1.0,
                1.0
            ]
        },
        {
            "name": "bip L UpperArm",
            "children": [
                10
            ],
            "translation": [
                12.8448047637939453125,
                0.0,
                -0.0000152587890625
            ],
            "rotation": [
                0.14584748446941375732421875,
                0.0602269209921360015869140625,
                0.0058227735571563243865966796875,
                0.98745501041412353515625
            ],
            "scale": [
                1.0,
                1.0,
                0.999999940395355224609375
            ]
        },
        {
            "name": "bip L Forearm",
            "children": [
                11
            ],
            "translation": [
                24.5158519744873046875,
                0.0000019073486328125,
                0.0
            ],
            "rotation": [
                0.0,
                0.0,
                -0.0696653425693511962890625,
                0.997570335865020751953125
            ],
            "scale": [
                0.999999940395355224609375,
                1.0,
                0.999999940395355224609375
            ]
        },
        {
            "name": "bip L Hand",
            "children": [
                12,
                14
            ],
            "translation": [
                24.03955078125,
                0.0,
                0.0
            ],
            "rotation": [
                -0.693047225475311279296875,
                0.1357166767120361328125,
                0.0415881760418415069580078125,
                0.706779301166534423828125
            ],
            "scale": [
                0.99999988079071044921875,
                0.999999940395355224609375,
                1.0
            ]
        },
        {
            "name": "bip L Finger0",
            "children": [
                13
            ],
            "translation": [
                5.1896686553955078125,
                2.4510345458984375,
                -5.5682201385498046875
            ],
            "rotation": [
                0.615967452526092529296875,
                0.17461241781711578369140625,
                0.00092900986783206462860107421875,
                0.768175601959228515625
            ],
            "scale": [
                1.0,
                1.0,
                1.0
            ]
        },
        {
            "name": "bip L Finger01",
            "translation": [
                4.412144184112548828125,
                -0.00000286102294921875,
                0.0
            ],
            "rotation": [
                0.00000000186288762193953516543842852115631103515625,
                0.000000051753346497207530774176120758056640625,
                0.01613099686801433563232421875,
                0.999869823455810546875
            ],
            "scale": [
                1.0,
                1.0,
                1.0
            ]
        },
        {
            "name": "bip L Finger1",
            "children": [
                15
            ],
            "translation": [
                11.40993499755859375,
                -0.6287689208984375,
                -0.039760589599609375
            ],
            "rotation": [
                -0.0003973421989940106868743896484375,
                0.0000248964061029255390167236328125,
                0.062528870999813079833984375,
                0.998043060302734375
            ],
            "scale": [
                1.0,
                0.999999940395355224609375,
                1.0
            ]
        },
        {
            "name": "bip L Finger11",
            "translation": [
                3.829624176025390625,
                -0.000030517578125,
                0.0000019073486328125
            ],
            "rotation": [
                -0.0000000112526894469056060188449919223785400390625,
                0.000000003750896926391078523010946810245513916015625,
                0.11664800345897674560546875,
                0.993173301219940185546875
            ],
            "scale": [
                1.0,
                1.0,
                0.999999940395355224609375
            ]
        },
        {
            "name": "bip R Clavicle",
            "children": [
                17
            ],
            "translation": [
                24.40174102783203125,
                -0.0399017333984375,
                -4.454900264739990234375
            ],
            "rotation": [
                0.75276648998260498046875,
                -0.00029880108195357024669647216796875,
                -0.658287525177001953125,
                -0.00026314510614611208438873291015625
            ],
            "scale": [
                1.0,
                1.0,
                1.0
            ]
        },
        {
            "name": "bip R UpperArm",
            "children": [
                18
            ],
            "translation": [
                12.844806671142578125,
                0.0000019073486328125,
                0.0000152587890625
            ],
            "rotation": [
                -0.145847499370574951171875,
                -0.0602269209921360015869140625,
                0.005822770297527313232421875,
                0.98745501041412353515625
            ],
            "scale": [
                1.0,
                0.999999940395355224609375,
                1.0
            ]
        },
        {
            "name": "bip R Forearm",
            "children": [
                19
            ],
            "translation": [
                24.515857696533203125,
                -0.0000019073486328125,
                0.0
            ],
            "rotation": [
                -0.0000000018671817425541803459054790437221527099609375,
                -0.0000000001750482814255605035214102827012538909912109375,
                -0.0696653425693511962890625,
                0.997570335865020751953125
            ],
            "scale": [
                1.0,
                1.0,
                1.0
            ]
        },
        {
            "name": "bip R Hand",
            "children": [
                20,
                22
            ],
            "translation": [
                24.03955841064453125,
                -0.0000019073486328125,
                -0.0000152587890625
            ],
            "rotation": [
                0.693047225475311279296875,
                -0.13571669161319732666015625,
                0.04158817231655120849609375,
                0.706779301166534423828125
            ],
            "scale": [
                1.0,
                1.0,
                1.0
            ]
        },
        {
            "name": "bip R Finger0",
            "children": [
                21
            ],
            "translation": [
                5.189666748046875,
                2.4510650634765625,
                5.5682201385498046875
            ],
            "rotation": [
                -0.61596739292144775390625,
                -0.174612462520599365234375,
                0.000929009751416742801666259765625,
                0.768175661563873291015625
            ],
            "scale": [
                1.0,
                1.0,
                1.0
            ]
        },
        {
            "name": "bip R Finger01",
            "translation": [
                4.412148952484130859375,
                0.000001430511474609375,
                0.0
            ],
            "rotation": [
                -0.00000001024588325293507296009920537471771240234375,
                0.0000000076261965631374550866894423961639404296875,
                0.01613100431859493255615234375,
                0.999869823455810546875
            ],
            "scale": [
                1.0,
                0.999999940395355224609375,
                1.0
            ]
        },
        {
            "name": "bip R Finger1",
            "children": [
                23
            ],
            "translation": [
                11.409923553466796875,
                -0.6287689208984375,
                0.039760589599609375
            ],
            "rotation": [
                0.00039735340396873652935028076171875,
                -0.00002489640974090434610843658447265625,
                0.06252886354923248291015625,
                0.998043060302734375
            ],
            "scale": [
                0.999999940395355224609375,
                1.0,
                0.999999940395355224609375
            ]
        },
        {
            "name": "bip R Finger11",
            "translation": [
                3.8296356201171875,
                -0.0000152587890625,
                0.0
            ],
            "rotation": [
                0.00000001500358592920747469179332256317138671875,
                0.0000000112526894469056060188449919223785400390625,
                0.11664803326129913330078125,
                0.993173301219940185546875
            ],
            "scale": [
                0.999999940395355224609375,
                0.999999940395355224609375,
                1.0
            ]
        },
        {
            "name": "bip L Thigh",
            "children": [
                25
            ],
            "translation": [
                -0.0000152587890625,
                0.0000169277191162109375,
                9.61742305755615234375
            ],
            "rotation": [
                0.0192229859530925750732421875,
                0.99634444713592529296875,
                0.072918362915515899658203125,
                -0.0401392765343189239501953125
            ],
            "scale": [
                0.999999940395355224609375,
                1.0,
                1.0
            ]
        },
        {
            "name": "bip L Calf",
            "children": [
                26
            ],
            "translation": [
                36.30257415771484375,
                -0.0000002384185791015625,
                -0.0000019073486328125
            ],
            "rotation": [
                0.0,
                -0.000000000233734420707065737587981857359409332275390625,
                -0.08785848319530487060546875,
                0.9961330890655517578125
            ],
            "scale": [
                0.999999940395355224609375,
                0.999999940395355224609375,
                1.0
            ]
        },
        {
            "name": "bip L Foot",
            "children": [
                27
            ],
            "translation": [
                40.19817352294921875,
                0.000000476837158203125,
                -0.0000019073486328125
            ],
            "rotation": [
                0.0396891534328460693359375,
                -0.03606116771697998046875,
                0.0671125352382659912109375,
                0.9963033199310302734375
            ],
            "scale": [
                1.0,
                1.0,
                0.999999940395355224609375
            ]
        },
        {
            "name": "bip L Toe0",
            "translation": [
                8.676937103271484375,
                14.280181884765625,
                -0.14760875701904296875
            ],
            "rotation": [
                -0.0000000028196758261600507466937415301799774169921875,
                0.0000000053714064307541775633580982685089111328125,
                0.75074827671051025390625,
                0.66058838367462158203125
            ],
            "scale": [
                1.0,
                1.0,
                1.0
            ]
        },
        {
            "name": "bip R Thigh",
            "children": [
                29
            ],
            "translation": [
                0.0000152587890625,
                -0.00000965595245361328125,
                -9.61742305755615234375
            ],
            "rotation": [
                0.01922303996980190277099609375,
                0.996344268321990966796875,
                -0.072919733822345733642578125,
                0.0401407666504383087158203125
            ],
            "scale": [
                0.999999940395355224609375,
                0.999999940395355224609375,
                1.0
            ]
        },
        {
            "name": "bip R Calf",
            "children": [
                30
            ],
            "translation": [
                36.30257415771484375,
                0.0,
                -0.0000019073486328125
            ],
            "rotation": [
                0.0,
                -0.00000000070120353967695336905308067798614501953125,
                -0.087858490645885467529296875,
                0.99613296985626220703125
            ],
            "scale": [
                0.999999940395355224609375,
                1.0,
                1.0
            ]
        },
        {
            "name": "bip R Foot",
            "children": [
                31
            ],
            "translation": [
                40.198177337646484375,
                -0.000000476837158203125,
                -0.0000019073486328125
            ],
            "rotation": [
                -0.03968916833400726318359375,
                0.0360612571239471435546875,
                0.0671125352382659912109375,
                0.9963033199310302734375
            ],
            "scale": [
                0.999999940395355224609375,
                1.0,
                1.0
            ]
        },
        {
            "name": "bip R Toe0",
            "translation": [
                8.676937103271484375,
                14.2801837921142578125,
                0.14761066436767578125
            ],
            "rotation": [
                -0.0000000003524594782700063433367176912724971771240234375,
                -0.00000000009080659835181137395920814014971256256103515625,
                0.75074827671051025390625,
                0.66058838367462158203125
            ],
            "scale": [
                1.0,
                1.0,
                1.00000011920928955078125
            ]
        },
        {
            "name": "rig_CharRoot",
            "children": [
                1
            ],
            "translation": [
                0.0,
                0.0,
                0.0
            ],
            "rotation": [
                -0.707106769084930419921875,
                0.0,
                0.0,
                0.707106769084930419921875
            ],
            "scale": [
                1.0,
                1.0,
                1.0
            ]
        }
    ],
    "meshes": [
        {
            "primitives": [
                {
                    "attributes": {
                        "POSITION": 1,
                        "NORMAL": 2,
                        "TANGENT": 3,
                        "TEXCOORD_0": 4,
                        "JOINTS_0": 5,
                        "WEIGHTS_0": 6
                    },
                    "indices": 0,
                    "material": 0,
                    "mode": 4
                }
            ],
            "name": "body"
        }
    ],
    "skins": [
        {
            "inverseBindMatrices": 7,
            "joints": [
                28,
                1,
                29,
                24,
                2,
                3,
                4,
                16,
                17,
                5,
                6,
                8,
                9,
                30,
                31,
                25,
                26,
                27,
                18,
                19,
                10,
                11,
                7,
                20,
                23,
                22,
                21,
                12,
                15,
                14,
                13
            ]
        }
    ],
    "animations": [
        {
            "name": "Take 001",
            "channels": [
                {
                    "sampler": 0,
                    "target": {
                        "node": 1,
                        "path": "translation"
                    }
                }
            ],
            "samplers": [
                {
                    "input": 8,
                    "interpolation": "LINEAR",
                    "output": 9
                }
            ]
        }
    ],
    "materials": [
        {
            "pbrMetallicRoughness": {
                "baseColorTexture": {
                    "index": 0
                },
                "metallicFactor": 0.0
            },
            "name": "peopleColors"
        }
    ],
    "textures": [
        {
            "sampler": 0,
            "source": 0
        }
    ],
    "images": [
        {
            "uri": "zcolors.png"
        }
    ],
    "samplers": [
        {
            "magFilter": 9729,
            "minFilter": 9729,
            "wrapS": 10497,
            "wrapT": 10497
        }
    ],
    "accessors": [
        {
            "bufferView": 0,
            "byteOffset": 0,
            "componentType": 5123,
            "count": 5172,
            "max": [
                3571
            ],
            "min": [
                0
            ],
            "type": "SCALAR"
        },
        {
            "bufferView": 1,
            "byteOffset": 0,
            "componentType": 5126,
            "count": 3572,
            "max": [
                84.35733795166015625,
                167.1159515380859375,
                12.83758640289306640625
            ],
            "min": [
                -84.35721588134765625,
                -0.2509959638118743896484375,
                -16.12813568115234375
            ],
            "type": "VEC3"
        },
        {
            "bufferView": 2,
            "byteOffset": 0,
            "componentType": 5126,
            "count": 3572,
            "max": [
                0.999979555606842041015625,
                0.99970376491546630859375,
                0.996828973293304443359375
            ],
            "min": [
                -0.999155700206756591796875,
                -0.999991595745086669921875,
                -0.999117910861968994140625
            ],
            "type": "VEC3"
        },
        {
            "bufferView": 3,
            "byteOffset": 0,
            "componentType": 5126,
            "count": 3572,
            "max": [
                0.99999988079071044921875,
                0.99999749660491943359375,
                0.0,
                1.0
            ],
            "min": [
                -0.999997913837432861328125,
                -0.99999439716339111328125,
                0.0,
                1.0
            ],
            "type": "VEC4"
        },
        {
            "bufferView": 4,
            "byteOffset": 0,
            "componentType": 5126,
            "count": 3572,
            "max": [
                0.966796875,
                0.856249988079071044921875
            ],
            "min": [
                0.095703125,
                0.033203125
            ],
            "type": "VEC2"
        },
        {
            "bufferView": 5,
            "byteOffset": 0,
            "componentType": 5123,
            "count": 3572,
            "max": [
                30,
                30,
                29,
                29
            ],
            "min": [
                0,
                0,
                0,
                0
            ],
            "type": "VEC4"
        },
        {
            "bufferView": 6,
            "byteOffset": 0,
            "componentType": 5126,
            "count": 3572,
            "max": [
                1.0,
                0.5,
                0.3129703104496002197265625,
                0.1262829601764678955078125
            ],
            "min": [
                0.316885769367218017578125,
                0.0,
                0.0,
                0.0
            ],
            "type": "VEC4"
        },
        {
            "bufferView": 7,
            "byteOffset": 0,
            "componentType": 5126,
            "count": 31,
            "max": [
                0.9994471073150634765625,
                1.0,
                1.0,
                0.0,
                1.0,
                0.991871356964111328125,
                1.0,
                0.0,
                1.0,
                1.0,
                0.968132674694061279296875,
                0.0,
                84.3024444580078125,
                152.6644134521484375,
                149.9274444580078125,
                1.0
            ],
            "min": [
                -0.999447166919708251953125,
                -0.550970613956451416015625,
                -0.9973156452178955078125,
                0.0,
                -1.0,
                -0.964624226093292236328125,
                -0.997272551059722900390625,
                0.0,
                -0.21542052924633026123046875,
                -0.99678862094879150390625,
                -0.968133270740509033203125,
                0.0,
                -146.5239410400390625,
                -24.4674053192138671875,
                -149.9272918701171875,
                1.0
            ],
            "type": "MAT4"
        },
        {
            "bufferView": 8,
            "byteOffset": 0,
            "componentType": 5126,
            "count": 1,
            "max": [
                0.0
            ],
            "min": [
                0.0
            ],
            "type": "SCALAR"
        },
        {
            "bufferView": 8,
            "byteOffset": 4,
            "componentType": 5126,
            "count": 1,
            "max": [
                0.0,
                1.666450023651123046875,
                85.38282012939453125
            ],
            "min": [
                0.0,
                1.666450023651123046875,
                85.38282012939453125
            ],
            "type": "VEC3"
        }
    ],
    "bufferViews": [
        {
            "buffer": 0,
            "byteOffset": 0,
            "byteLength": 10344,
            "target": 34963
        },
        {
            "buffer": 0,
            "byteOffset": 10344,
            "byteLength": 42864,
            "byteStride": 12,
            "target": 34962
        },
        {
            "buffer": 0,
            "byteOffset": 53208,
            "byteLength": 42864,
            "byteStride": 12,
            "target": 34962
        },
        {
            "buffer": 0,
            "byteOffset": 96072,
            "byteLength": 57152,
            "byteStride": 16,
            "target": 34962
        },
        {
            "buffer": 0,
            "byteOffset": 153224,
            "byteLength": 28576,
            "byteStride": 8,
            "target": 34962
        },
        {
            "buffer": 0,
            "byteOffset": 181800,
            "byteLength": 28576,
            "byteStride": 8,
            "target": 34962
        },
        {
            "buffer": 0,
            "byteOffset": 210376,
            "byteLength": 57152,
            "byteStride": 16,
            "target": 34962
        },
        {
            "buffer": 0,
            "byteOffset": 267528,
            "byteLength": 1984
        },
        {
            "buffer": 0,
            "byteOffset": 269512,
            "byteLength": 16
        }
    ],
    "buffers": [
        {
            "byteLength": 269528,
            "uri": "ZombieMale_A_joined0.bin"
        }
    ]
}
