{
    "asset": {
        "generator": "Noesis",
        "version": "2.0"
    },
    "scene": 0,
    "scenes": [
        {
            "nodes": [
                0,
                32
            ]
        }
    ],
    "nodes": [
        {
            "name": "body_noesis_meshnode_0000",
            "translation": [
                0.0,
                0.0,
                0.0
            ],
            "rotation": [
                0.0,
                0.0,
                0.0,
                1.0
            ],
            "scale": [
                1.0,
                1.0,
                1.0
            ],
            "mesh": 0,
            "skin": 0
        },
        {
            "name": "bip",
            "children": [
                2
            ],
            "translation": [
                0.0,
                1.666450023651123046875,
                88.87543487548828125
            ],
            "rotation": [
                -0.0000000000000000000000000000022312338510811075222096487959805919,
                0.0,
                -0.70710623264312744140625,
                0.7071073055267333984375
            ],
            "scale": [
                1.0,
                1.0,
                1.0
            ]
        },
        {
            "name": "bip Pelvis",
            "children": [
                3,
                24,
                28
            ],
            "translation": [
                0.0,
                0.0,
                0.0
            ],
            "rotation": [
                -0.500000059604644775390625,
                -0.500000059604644775390625,
                -0.499999344348907470703125,
                0.500000655651092529296875
            ],
            "scale": [
                1.0,
                1.0,
                1.0
            ]
        },
        {
            "name": "bip Spine",
            "children": [
                4
            ],
            "translation": [
                3.581878662109375,
                -0.2965872287750244140625,
                0.00000137864799398812465369701385498046875
            ],
            "rotation": [
                -0.0000021355708668124862015247344970703125,
                -0.00000075475526273294235579669475555419921875,
                0.09279994666576385498046875,
                0.9956848621368408203125
            ],
            "scale": [
                1.0,
                1.0,
                1.0
            ]
        },
        {
            "name": "bip Spine1",
            "children": [
                5,
                8,
                16
            ],
            "translation": [
                16.1555633544921875,
                -0.017421722412109375,
                -0.000000048312358558177947998046875
            ],
            "rotation": [
                0.0,
                0.00000055591743830518680624663829803466796875,
                -0.20043171942234039306640625,
                0.9797077178955078125
            ],
            "scale": [
                1.0,
                1.0,
                1.0
            ]
        },
        {
            "name": "bip Neck",
            "children": [
                6
            ],
            "translation": [
                29.6358184814453125,
                1.596096038818359375,
                0.00000342692874255590140819549560546875
            ],
            "rotation": [
                -0.0000000000000592316316437233036928944329702062532305717468261719,
                -0.00000077964403999430942349135875701904296875,
                0.2810945808887481689453125,
                0.959680140018463134765625
            ],
            "scale": [
                1.0,
                1.0,
                1.0
            ]
        },
        {
            "name": "bip Head",
            "children": [
                7
            ],
            "translation": [
                6.4868316650390625,
                0.000003814697265625,
                0.0
            ],
            "rotation": [
                0.001305765355937182903289794921875,
                -0.0002074502990581095218658447265625,
                -0.17417429387569427490234375,
                0.984713971614837646484375
            ],
            "scale": [
                0.999999940395355224609375,
                1.0,
                0.999999940395355224609375
            ]
        },
        {
            "name": "bip jaw",
            "translation": [
                2.8549346923828125,
                2.2718918323516845703125,
                -0.00677833892405033111572265625
            ],
            "rotation": [
                -0.00003332397318445146083831787109375,
                0.00204947381280362606048583984375,
                0.77626621723175048828125,
                0.6304018497467041015625
            ],
            "scale": [
                1.0,
                1.0,
                0.999999940395355224609375
            ]
        },
        {
            "name": "bip L Clavicle",
            "children": [
                9
            ],
            "translation": [
                23.429412841796875,
                -0.0360507965087890625,
                4.02177524566650390625
            ],
            "rotation": [
                0.75276648998260498046875,
                -0.0003006265615113079547882080078125,
                0.658287525177001953125,
                0.00026106034056283533573150634765625
            ],
            "scale": [
                0.999999940395355224609375,
                1.0,
                1.0
            ]
        },
        {
            "name": "bip L UpperArm",
            "children": [
                10
            ],
            "translation": [
                12.410648345947265625,
                -0.0000057220458984375,
                0.00000762939453125
            ],
            "rotation": [
                0.1474639475345611572265625,
                0.0583302788436412811279296875,
                0.02677144296467304229736328125,
                0.98698294162750244140625
            ],
            "scale": [
                0.999999940395355224609375,
                1.0,
                1.0
            ]
        },
        {
            "name": "bip L Forearm",
            "children": [
                11
            ],
            "translation": [
                23.308319091796875,
                0.0,
                0.0
            ],
            "rotation": [
                0.000000001875705368803437522728927433490753173828125,
                0.00000000011723157167242703735610120929777622222900390625,
                -0.117800720036029815673828125,
                0.993037164211273193359375
            ],
            "scale": [
                1.0,
                1.0,
                1.00000011920928955078125
            ]
        },
        {
            "name": "bip L Hand",
            "children": [
                12,
                14
            ],
            "translation": [
                22.85547637939453125,
                0.0,
                0.0
            ],
            "rotation": [
                -0.693047225475311279296875,
                0.1357166767120361328125,
                0.0415881760418415069580078125,
                0.706779301166534423828125
            ],
            "scale": [
                1.0,
                1.0,
                1.0
            ]
        },
        {
            "name": "bip L Finger0",
            "children": [
                13
            ],
            "translation": [
                3.579792022705078125,
                1.316070556640625,
                -3.51404571533203125
            ],
            "rotation": [
                0.61596739292144775390625,
                0.174612462520599365234375,
                0.000929009751416742801666259765625,
                0.768175661563873291015625
            ],
            "scale": [
                1.0,
                1.0,
                1.0
            ]
        },
        {
            "name": "bip L Finger01",
            "translation": [
                4.19482135772705078125,
                -0.000003814697265625,
                0.0000152587890625
            ],
            "rotation": [
                -0.00000000558866286581860549631528556346893310546875,
                -0.00000001257449167013646729174070060253143310546875,
                0.01613102667033672332763671875,
                0.999869823455810546875
            ],
            "scale": [
                0.999999940395355224609375,
                1.0,
                1.0
            ]
        },
        {
            "name": "bip L Finger1",
            "children": [
                15
            ],
            "translation": [
                7.9732456207275390625,
                -0.251708984375,
                0.4155483245849609375
            ],
            "rotation": [
                0.02876436524093151092529296875,
                -0.03291554749011993408203125,
                0.0615439452230930328369140625,
                0.997146785259246826171875
            ],
            "scale": [
                1.0,
                0.999999940395355224609375,
                1.0
            ]
        },
        {
            "name": "bip L Finger11",
            "translation": [
                3.6410064697265625,
                0.0,
                0.0
            ],
            "rotation": [
                0.0,
                0.000000007501792964603737345896661281585693359375,
                0.116648018360137939453125,
                0.993173301219940185546875
            ],
            "scale": [
                1.0,
                1.0,
                1.0
            ]
        },
        {
            "name": "bip R Clavicle",
            "children": [
                17
            ],
            "translation": [
                23.4294281005859375,
                -0.0360279083251953125,
                -4.0217742919921875
            ],
            "rotation": [
                0.75276648998260498046875,
                -0.0002988066407851874828338623046875,
                -0.658287525177001953125,
                -0.00026315005379728972911834716796875
            ],
            "scale": [
                1.0,
                1.0,
                1.0
            ]
        },
        {
            "name": "bip R UpperArm",
            "children": [
                18
            ],
            "translation": [
                12.4106502532958984375,
                -0.0000019073486328125,
                -0.0000152587890625
            ],
            "rotation": [
                -0.14746396243572235107421875,
                -0.05833028256893157958984375,
                0.02677143551409244537353515625,
                0.98698294162750244140625
            ],
            "scale": [
                1.0,
                0.999999940395355224609375,
                0.999999940395355224609375
            ]
        },
        {
            "name": "bip R Forearm",
            "children": [
                19
            ],
            "translation": [
                23.3083171844482421875,
                -0.00000095367431640625,
                0.0000152587890625
            ],
            "rotation": [
                0.0,
                -0.000000000234463171100429690341115929186344146728515625,
                -0.117800720036029815673828125,
                0.993037283420562744140625
            ],
            "scale": [
                1.0,
                1.0,
                0.999999940395355224609375
            ]
        },
        {
            "name": "bip R Hand",
            "children": [
                20,
                22
            ],
            "translation": [
                22.855480194091796875,
                0.0,
                0.0
            ],
            "rotation": [
                0.693047225475311279296875,
                -0.13571669161319732666015625,
                0.041588179767131805419921875,
                0.706779301166534423828125
            ],
            "scale": [
                1.0,
                0.999999940395355224609375,
                1.0
            ]
        },
        {
            "name": "bip R Finger0",
            "children": [
                21
            ],
            "translation": [
                3.5797901153564453125,
                1.31610107421875,
                3.5140438079833984375
            ],
            "rotation": [
                -0.61596739292144775390625,
                -0.17461241781711578369140625,
                0.000929014640860259532928466796875,
                0.768175661563873291015625
            ],
            "scale": [
                1.0,
                1.0,
                1.0
            ]
        },
        {
            "name": "bip R Finger01",
            "translation": [
                4.1948261260986328125,
                0.0,
                0.0
            ],
            "rotation": [
                -0.000000002794331432909302748157642781734466552734375,
                0.00000000931443810969767582719214260578155517578125,
                0.01613098941743373870849609375,
                0.999869823455810546875
            ],
            "scale": [
                0.999999940395355224609375,
                1.0,
                1.0
            ]
        },
        {
            "name": "bip R Finger1",
            "children": [
                23
            ],
            "translation": [
                7.97325897216796875,
                -0.251678466796875,
                -0.415554046630859375
            ],
            "rotation": [
                -0.0287643857300281524658203125,
                0.03291554749011993408203125,
                0.0615439601242542266845703125,
                0.997146785259246826171875
            ],
            "scale": [
                1.0,
                0.999999940395355224609375,
                0.999999940395355224609375
            ]
        },
        {
            "name": "bip R Finger11",
            "translation": [
                3.6410312652587890625,
                0.0000152587890625,
                -0.000003814697265625
            ],
            "rotation": [
                0.000000007501792964603737345896661281585693359375,
                0.0000000037508964823018686729483306407928466796875,
                0.11664806306362152099609375,
                0.993173301219940185546875
            ],
            "scale": [
                0.999999940395355224609375,
                1.0,
                1.0
            ]
        },
        {
            "name": "bip L Thigh",
            "children": [
                25
            ],
            "translation": [
                -0.0000152587890625,
                0.00001943111419677734375,
                11.1372890472412109375
            ],
            "rotation": [
                0.00317996530793607234954833984375,
                0.996830046176910400390625,
                0.074152313172817230224609375,
                -0.0286562629044055938720703125
            ],
            "scale": [
                0.999999940395355224609375,
                1.0,
                1.0
            ]
        },
        {
            "name": "bip L Calf",
            "children": [
                26
            ],
            "translation": [
                38.806976318359375,
                0.0,
                -0.000003814697265625
            ],
            "rotation": [
                0.0,
                0.000000000080170280136737659404388978146016597747802734375,
                -0.0579429455101490020751953125,
                0.998319923877716064453125
            ],
            "scale": [
                0.999999940395355224609375,
                0.999999940395355224609375,
                1.0
            ]
        },
        {
            "name": "bip L Foot",
            "children": [
                27
            ],
            "translation": [
                40.975948333740234375,
                0.000000476837158203125,
                0.0
            ],
            "rotation": [
                0.039172179996967315673828125,
                -0.026295639574527740478515625,
                0.053657256066799163818359375,
                0.99744427204132080078125
            ],
            "scale": [
                1.0,
                0.99999988079071044921875,
                1.0
            ]
        },
        {
            "name": "bip L Toe0",
            "translation": [
                8.5667877197265625,
                12.4001903533935546875,
                -0.14573574066162109375
            ],
            "rotation": [
                -0.0000000024672164311567712502437643706798553466796875,
                0.000000005371360689565563006908632814884185791015625,
                0.75074827671051025390625,
                0.66058838367462158203125
            ],
            "scale": [
                1.0,
                1.0,
                1.0
            ]
        },
        {
            "name": "bip R Thigh",
            "children": [
                29
            ],
            "translation": [
                0.0000152587890625,
                -0.00001156330108642578125,
                -11.1372890472412109375
            ],
            "rotation": [
                0.0031800349242985248565673828125,
                0.996829926967620849609375,
                -0.0741536915302276611328125,
                0.02865773625671863555908203125
            ],
            "scale": [
                1.0,
                1.0,
                1.0
            ]
        },
        {
            "name": "bip R Calf",
            "children": [
                30
            ],
            "translation": [
                38.80698394775390625,
                -0.00000035762786865234375,
                -0.0000019073486328125
            ],
            "rotation": [
                0.00000000373155994992657724651508033275604248046875,
                -0.00000000078712580897644102151389233767986297607421875,
                -0.0579429529607295989990234375,
                0.998319923877716064453125
            ],
            "scale": [
                1.0,
                0.999999940395355224609375,
                1.0
            ]
        },
        {
            "name": "bip R Foot",
            "children": [
                31
            ],
            "translation": [
                40.97594451904296875,
                0.000000476837158203125,
                0.0
            ],
            "rotation": [
                -0.0391722023487091064453125,
                0.026295728981494903564453125,
                0.053657241165637969970703125,
                0.99744427204132080078125
            ],
            "scale": [
                1.0,
                0.99999988079071044921875,
                1.0
            ]
        },
        {
            "name": "bip R Toe0",
            "translation": [
                8.5667877197265625,
                12.40019130706787109375,
                0.1457386016845703125
            ],
            "rotation": [
                0.0,
                0.0000000027287885284721369316685013473033905029296875,
                0.75074827671051025390625,
                0.66058838367462158203125
            ],
            "scale": [
                1.0,
                1.0,
                0.999999940395355224609375
            ]
        },
        {
            "name": "rig_CharRoot",
            "children": [
                1
            ],
            "translation": [
                0.0,
                0.0,
                0.0
            ],
            "rotation": [
                -0.707106769084930419921875,
                0.0,
                0.0,
                0.707106769084930419921875
            ],
            "scale": [
                1.0,
                1.0,
                1.0
            ]
        }
    ],
    "meshes": [
        {
            "primitives": [
                {
                    "attributes": {
                        "POSITION": 1,
                        "NORMAL": 2,
                        "TANGENT": 3,
                        "TEXCOORD_0": 4,
                        "JOINTS_0": 5,
                        "WEIGHTS_0": 6
                    },
                    "indices": 0,
                    "material": 0,
                    "mode": 4
                }
            ],
            "name": "body"
        }
    ],
    "skins": [
        {
            "inverseBindMatrices": 7,
            "joints": [
                28,
                1,
                29,
                24,
                3,
                2,
                25,
                4,
                16,
                5,
                8,
                30,
                31,
                26,
                27,
                18,
                17,
                19,
                10,
                11,
                6,
                7,
                9,
                20,
                23,
                22,
                12,
                15,
                14,
                21,
                13
            ]
        }
    ],
    "animations": [
        {
            "name": "Take 001",
            "channels": [
                {
                    "sampler": 0,
                    "target": {
                        "node": 1,
                        "path": "translation"
                    }
                }
            ],
            "samplers": [
                {
                    "input": 8,
                    "interpolation": "LINEAR",
                    "output": 9
                }
            ]
        }
    ],
    "materials": [
        {
            "pbrMetallicRoughness": {
                "baseColorTexture": {
                    "index": 0
                },
                "metallicFactor": 0.0
            },
            "name": "zombie"
        }
    ],
    "textures": [
        {
            "sampler": 0,
            "source": 0
        }
    ],
    "images": [
        {
            "uri": "zcolors.png"
        }
    ],
    "samplers": [
        {
            "magFilter": 9729,
            "minFilter": 9729,
            "wrapS": 10497,
            "wrapT": 10497
        }
    ],
    "accessors": [
        {
            "bufferView": 0,
            "byteOffset": 0,
            "componentType": 5123,
            "count": 4854,
            "max": [
                3311
            ],
            "min": [
                0
            ],
            "type": "SCALAR"
        },
        {
            "bufferView": 1,
            "byteOffset": 0,
            "componentType": 5126,
            "count": 3312,
            "max": [
                76.6730804443359375,
                167.283477783203125,
                14.3927822113037109375
            ],
            "min": [
                -76.6391754150390625,
                0.2139234840869903564453125,
                -17.8432407379150390625
            ],
            "type": "VEC3"
        },
        {
            "bufferView": 2,
            "byteOffset": 0,
            "componentType": 5126,
            "count": 3312,
            "max": [
                0.99996387958526611328125,
                0.999757826328277587890625,
                0.993035137653350830078125
            ],
            "min": [
                -0.999841272830963134765625,
                -1.0,
                -0.99836146831512451171875
            ],
            "type": "VEC3"
        },
        {
            "bufferView": 3,
            "byteOffset": 0,
            "componentType": 5126,
            "count": 3312,
            "max": [
                1.0,
                0.999998986721038818359375,
                0.0,
                1.0
            ],
            "min": [
                -0.999988555908203125,
                -0.99999892711639404296875,
                0.0,
                1.0
            ],
            "type": "VEC4"
        },
        {
            "bufferView": 4,
            "byteOffset": 0,
            "componentType": 5126,
            "count": 3312,
            "max": [
                0.966796875,
                0.778124988079071044921875
            ],
            "min": [
                0.09062500298023223876953125,
                0.033203125
            ],
            "type": "VEC2"
        },
        {
            "bufferView": 5,
            "byteOffset": 0,
            "componentType": 5123,
            "count": 3312,
            "max": [
                30,
                28,
                30,
                30
            ],
            "min": [
                0,
                0,
                0,
                0
            ],
            "type": "VEC4"
        },
        {
            "bufferView": 6,
            "byteOffset": 0,
            "componentType": 5126,
            "count": 3312,
            "max": [
                1.0,
                0.5,
                0.32377946376800537109375,
                0.2090675532817840576171875
            ],
            "min": [
                0.30812203884124755859375,
                0.0,
                0.0,
                0.0
            ],
            "type": "VEC4"
        },
        {
            "bufferView": 7,
            "byteOffset": 0,
            "componentType": 5126,
            "count": 31,
            "max": [
                0.9972064495086669921875,
                1.0,
                1.0,
                0.0,
                1.0,
                0.991871356964111328125,
                1.0,
                0.0,
                1.0,
                1.0,
                0.957314431667327880859375,
                0.0,
                88.089599609375,
                143.5186920166015625,
                144.6369171142578125,
                1.0
            ],
            "min": [
                -0.997206628322601318359375,
                -0.533234536647796630859375,
                -0.997315585613250732421875,
                0.0,
                -1.0,
                -0.978305816650390625,
                -0.997283279895782470703125,
                0.0,
                -0.21601222455501556396484375,
                -0.994544804096221923828125,
                -0.957315146923065185546875,
                0.0,
                -143.7040252685546875,
                -24.3839588165283203125,
                -144.636810302734375,
                1.0
            ],
            "type": "MAT4"
        },
        {
            "bufferView": 8,
            "byteOffset": 0,
            "componentType": 5126,
            "count": 1,
            "max": [
                0.0
            ],
            "min": [
                0.0
            ],
            "type": "SCALAR"
        },
        {
            "bufferView": 8,
            "byteOffset": 4,
            "componentType": 5126,
            "count": 1,
            "max": [
                0.0,
                1.666450023651123046875,
                88.87543487548828125
            ],
            "min": [
                0.0,
                1.666450023651123046875,
                88.87543487548828125
            ],
            "type": "VEC3"
        }
    ],
    "bufferViews": [
        {
            "buffer": 0,
            "byteOffset": 0,
            "byteLength": 9708,
            "target": 34963
        },
        {
            "buffer": 0,
            "byteOffset": 9708,
            "byteLength": 39744,
            "byteStride": 12,
            "target": 34962
        },
        {
            "buffer": 0,
            "byteOffset": 49452,
            "byteLength": 39744,
            "byteStride": 12,
            "target": 34962
        },
        {
            "buffer": 0,
            "byteOffset": 89196,
            "byteLength": 52992,
            "byteStride": 16,
            "target": 34962
        },
        {
            "buffer": 0,
            "byteOffset": 142188,
            "byteLength": 26496,
            "byteStride": 8,
            "target": 34962
        },
        {
            "buffer": 0,
            "byteOffset": 168684,
            "byteLength": 26496,
            "byteStride": 8,
            "target": 34962
        },
        {
            "buffer": 0,
            "byteOffset": 195180,
            "byteLength": 52992,
            "byteStride": 16,
            "target": 34962
        },
        {
            "buffer": 0,
            "byteOffset": 248172,
            "byteLength": 1984
        },
        {
            "buffer": 0,
            "byteOffset": 250156,
            "byteLength": 16
        }
    ],
    "buffers": [
        {
            "byteLength": 250172,
            "uri": "ZombieFemale_E_joined0.bin"
        }
    ]
}
